<?xml version="1.0" encoding="UTF-8"?>
<svg width="28px" height="28px" viewBox="0 0 28 28" version="1.1" xmlns="http://www.w3.org/2000/svg" xmlns:xlink="http://www.w3.org/1999/xlink">
    <!-- Generator: Sketch 55.2 (78181) - https://sketchapp.com -->
    <title>Logo Active</title>
    <desc>Created with Sketch.</desc>
    <g id="Logo-Active" stroke="none" stroke-width="1" fill="none" fill-rule="evenodd">
        <g id="logo" transform="translate(0.000000, 9.000000)" fill="#FFFFFF">
            <g id="Logo/topcoder/icon">
                <path d="M4.41598798,6.68263535 C4.03449882,7.70671431 3.77405789,8.78776515 3.64231368,9.90206876 C1.49191377,9.66292994 0,6.24144591 0,5.42372881 C0,4.06779661 1.56573782,3.38983051 3.20481928,3.38983051 C4.15180717,3.38983051 5.1171231,3.47270611 6.05949126,3.60749657 C5.39368567,4.51941306 4.83697412,5.55252972 4.41598798,6.68263535 Z M13.6626506,5.76271186 C13.3253012,5.76271186 10.4849984,6.61887565 8.51807229,7.71186441 C6.95995754,8.57768337 5.52007965,9.63989105 4.32602712,9.86996417 C4.45700873,8.83578349 4.7029326,7.84626319 5.04786863,6.92030837 C5.4877,5.73961414 6.08851577,4.66227138 6.81728952,3.72747434 C10.5106132,4.3672694 13.6626506,5.69845093 13.6626506,5.76271186 Z M24.3576833,9.9020691 C24.2148654,8.69409458 23.9208559,7.52551177 23.4856879,6.42673189 C23.0773823,5.39577835 22.5552909,4.44978323 21.9404121,3.6075104 C22.8828109,3.47271178 23.8481605,3.38983051 24.7951807,3.38983051 C26.4342622,3.38983051 28,4.06779661 28,5.42372881 C28,6.2414463 26.5080848,9.66293316 24.3576833,9.9020691 Z M19.4819277,7.71186441 C17.5150016,6.61887565 14.6746988,5.76271186 14.3373494,5.76271186 C14.3373494,5.69845093 17.4893868,4.3672694 21.182711,3.72747504 C21.8612039,4.59777699 22.4287863,5.59163365 22.8588068,6.67741643 C23.2529078,7.6725041 23.5314683,8.74480216 23.6739729,9.86996417 C22.4799203,9.63989105 21.0400425,8.57768337 19.4819277,7.71186441 Z M14,0 C16.5825608,0 18.9313982,1.18757098 20.6799184,3.12765622 C19.6374191,3.32330409 18.5753388,3.58252855 17.5117804,3.89352846 C16.6031126,4.15923615 15.7481805,4.44836362 15.0315179,4.72262368 C14.7452018,4.83219415 14.0281146,5.15197727 14,5.16651897 C13.9718854,5.15197727 13.2547982,4.83219415 12.9684821,4.72262368 C12.2518195,4.44836362 11.3968874,4.15923615 10.4882196,3.89352846 C9.42466116,3.58252855 8.3625809,3.32330409 7.32008159,3.12765622 C9.06860177,1.18757098 11.4174392,0 14,0 Z" id="Logo"></path>
            </g>
        </g>
    </g>
</svg>