<?xml version="1.0" encoding="utf-8"?>
<!-- Generator: Adobe Illustrator 19.0.0, SVG Export Plug-In . SVG Version: 6.00 Build 0)  -->
<svg version="1.0" id="Layer_1" xmlns="http://www.w3.org/2000/svg" xmlns:xlink="http://www.w3.org/1999/xlink" x="0px" y="0px"
	 viewBox="0 0 16 16" style="enable-background:new 0 0 16 16;" xml:space="preserve">
<style type="text/css">
	.st0{fill:#111111;}
</style>
<g id="XMLID_40_">
	<g id="XMLID_701_">
		<path id="XMLID_54_" class="st0" d="M6.8,12.3L6.8,12.3c-0.1,0-0.2,0-0.3-0.1L3.8,9.5C3.6,9.3,3.6,9,3.8,8.8L10,2.6
			c0.8-0.8,1.9-1.4,3.1-1.5L14.5,1c0.1,0,0.3,0,0.4,0.1C15,1.2,15,1.4,15,1.5l-0.2,1.4c-0.1,1.2-0.7,2.3-1.5,3.1l-6.2,6.2
			C7.1,12.3,7,12.3,6.8,12.3z M4.8,9.2l2,2l5.9-5.9c0.7-0.7,1.1-1.6,1.2-2.5L14,2l-0.8,0.1c-1,0.1-1.9,0.5-2.5,1.2L4.8,9.2z"/>
	</g>
	<g id="XMLID_697_">
		<path id="XMLID_51_" class="st0" d="M4.1,9.6c-0.1,0-0.1,0-0.1,0L1.7,8.9C1.5,8.8,1.3,8.6,1.2,8.4C1.1,8.2,1,7.9,1.1,7.7
			c0-0.1,0.1-0.3,0.2-0.4l0.1-0.1c1.1-1.1,2.8-1.5,4.4-1l0.8,0.3C6.8,6.4,6.9,6.6,7,6.7c0,0.2,0,0.3-0.1,0.4L4.5,9.5
			C4.4,9.6,4.3,9.6,4.1,9.6z M4.5,6.8c-0.9,0-1.7,0.3-2.3,1L2,8l2,0.7L5.6,7L5.6,7C5.2,6.9,4.8,6.8,4.5,6.8z"/>
	</g>
	<g id="XMLID_693_">
		<path id="XMLID_48_" class="st0" d="M4.1,9.6c-0.1,0-0.1,0-0.1,0L1.7,8.9C1.5,8.8,1.3,8.6,1.2,8.4C1.1,8.2,1,7.9,1.1,7.7
			c0-0.1,0.1-0.3,0.2-0.4l0.1-0.1c1.1-1.1,2.8-1.5,4.4-1l0.8,0.3C6.8,6.4,6.9,6.6,7,6.7c0,0.2,0,0.3-0.1,0.4L4.5,9.5
			C4.4,9.6,4.3,9.6,4.1,9.6z M4.5,6.8c-0.9,0-1.7,0.3-2.3,1L2,8l2,0.7L5.6,7L5.6,7C5.2,6.9,4.8,6.8,4.5,6.8z"/>
	</g>
	<g id="XMLID_689_">
		<path id="XMLID_45_" class="st0" d="M8,14.9c-0.1,0-0.3,0-0.4-0.1c-0.2-0.1-0.4-0.3-0.5-0.5L6.4,12c-0.1-0.2,0-0.4,0.1-0.5
			l2.3-2.3C9,9.1,9.1,9,9.3,9c0.2,0,0.3,0.2,0.3,0.3l0.3,0.8c0.5,1.5,0.1,3.2-1,4.4l-0.1,0.1c-0.1,0.1-0.2,0.2-0.4,0.2
			C8.2,14.9,8.1,14.9,8,14.9z M7.4,12L8,14l0.1-0.1c0.9-0.9,1.2-2.2,0.8-3.4l0-0.1L7.4,12z"/>
	</g>
	<g id="XMLID_685_">
		<path id="XMLID_42_" class="st0" d="M8,14.9c-0.1,0-0.3,0-0.4-0.1c-0.2-0.1-0.4-0.3-0.5-0.5L6.4,12c-0.1-0.2,0-0.4,0.1-0.5
			l2.3-2.3C9,9.1,9.1,9,9.3,9c0.2,0,0.3,0.2,0.3,0.3l0.3,0.8c0.5,1.5,0.1,3.2-1,4.4l-0.1,0.1c-0.1,0.1-0.2,0.2-0.4,0.2
			C8.2,14.9,8.1,14.9,8,14.9z M7.4,12L8,14l0.1-0.1c0.9-0.9,1.2-2.2,0.8-3.4l0-0.1L7.4,12z"/>
	</g>
	<g id="XMLID_683_">
		<path id="XMLID_41_" class="st0" d="M1.5,15c-0.1,0-0.2,0-0.3-0.1C1,14.7,1,14.6,1,14.4c0.1-0.5,0.8-2.9,1.5-3.6
			c0.3-0.3,0.8-0.5,1.2-0.6c0.3,0,0.5,0.2,0.5,0.4c0,0.3-0.2,0.5-0.4,0.5c-0.2,0-0.4,0.1-0.6,0.3c-0.2,0.2-0.6,1.3-1,2.3
			c1.1-0.3,2.1-0.7,2.3-1c0.2-0.2,0.3-0.4,0.3-0.7c0-0.3,0.2-0.5,0.5-0.5c0,0,0,0,0,0c0.3,0,0.5,0.2,0.5,0.5c0,0.5-0.2,1-0.6,1.3
			c-0.6,0.6-3.1,1.3-3.6,1.5C1.6,15,1.5,15,1.5,15z"/>
	</g>
</g>
<g id="XMLID_57_">
</g>
<g id="XMLID_58_">
</g>
<g id="XMLID_59_">
</g>
<g id="XMLID_60_">
</g>
<g id="XMLID_61_">
</g>
<g id="XMLID_62_">
</g>
<g id="XMLID_63_">
</g>
<g id="XMLID_64_">
</g>
<g id="XMLID_65_">
</g>
<g id="XMLID_66_">
</g>
<g id="XMLID_67_">
</g>
<g id="XMLID_68_">
</g>
<g id="XMLID_69_">
</g>
<g id="XMLID_70_">
</g>
<g id="XMLID_71_">
</g>
</svg>
