<?xml version="1.0" encoding="utf-8"?>
<!-- Generator: Adobe Illustrator 19.0.0, SVG Export Plug-In . SVG Version: 6.00 Build 0)  -->
<svg version="1.0" id="Layer_1" xmlns="http://www.w3.org/2000/svg" xmlns:xlink="http://www.w3.org/1999/xlink" x="0px" y="0px"
	 viewBox="0 0 16 16" style="enable-background:new 0 0 16 16;" xml:space="preserve">
<style type="text/css">
	.st0{fill:#111111;}
</style>
<g id="XMLID_1_">
</g>
<g id="XMLID_2_">
</g>
<g id="XMLID_3_">
</g>
<g id="XMLID_4_">
</g>
<g id="XMLID_5_">
</g>
<g id="XMLID_6_">
</g>
<g id="XMLID_7_">
</g>
<g id="XMLID_8_">
</g>
<g id="XMLID_9_">
</g>
<g id="XMLID_10_">
</g>
<g id="XMLID_11_">
</g>
<g id="XMLID_12_">
</g>
<g id="XMLID_13_">
</g>
<g id="XMLID_14_">
</g>
<g id="XMLID_274_">
	<path id="XMLID_279_" class="st0" d="M5.8,11.5c-0.7,0-1.3-0.6-1.3-1.3V7.6c0-0.6,0.4-1.1,0.9-1.2v-1c0-1.4,1.2-2.6,2.6-2.6
		s2.6,1.2,2.6,2.6v1c0.5,0.2,0.9,0.7,0.9,1.2v2.6c0,0.7-0.6,1.3-1.3,1.3H5.8z M5.8,7.1c-0.2,0-0.4,0.2-0.4,0.4v2.6
		c0,0.2,0.2,0.4,0.4,0.4h4.4c0.2,0,0.4-0.2,0.4-0.4V7.6c0-0.2-0.2-0.4-0.4-0.4H5.8z M9.8,6.3V5.4c0-1-0.8-1.8-1.8-1.8
		S6.3,4.4,6.3,5.4v0.9H9.8z"/>
	<path id="XMLID_278_" class="st0" d="M8,9.5c-0.4,0-0.7-0.3-0.7-0.7S7.6,8.2,8,8.2c0.2,0,0.3,0.1,0.5,0.2c0.1,0.1,0.2,0.3,0.2,0.5
		C8.7,9.2,8.4,9.5,8,9.5z"/>
	<path id="XMLID_275_" class="st0" d="M8,15c0,0-0.1,0-0.1,0C3.4,13.8,1,11.1,1,7.1V1.4C1,1.2,1.2,1,1.4,1h13.1
		C14.8,1,15,1.2,15,1.4v5.7c0,3.9-2.4,6.7-6.9,7.9C8.1,15,8,15,8,15z M1.9,7.1c0,3.5,2.1,5.9,6.1,7c4.1-1.1,6.1-3.5,6.1-7V1.9H1.9
		V7.1z"/>
</g>
</svg>
