<?xml version="1.0" encoding="utf-8"?>
<!-- Generator: Adobe Illustrator 19.0.0, SVG Export Plug-In . SVG Version: 6.00 Build 0)  -->
<svg version="1.0" id="Layer_1" xmlns="http://www.w3.org/2000/svg" xmlns:xlink="http://www.w3.org/1999/xlink" x="0px" y="0px"
	 viewBox="0 0 16 16" style="enable-background:new 0 0 16 16;" xml:space="preserve">
<style type="text/css">
	.st0{fill:#FFFFFF;}
</style>
<g id="XMLID_71_">
	<g id="XMLID_163_">
		<path id="XMLID_177_" class="st0" d="M8,5.4C7.6,5.4,7.2,5.2,6.9,5L6.8,4.9C6.5,4.5,6.4,4.1,6.4,3.6l0.3-2.2C6.7,1.2,6.9,1,7.1,1
			h1.8c0.2,0,0.4,0.2,0.4,0.4l0.3,2.2l0,0C9.7,4,9.5,4.5,9.2,4.8C8.9,5.2,8.5,5.4,8,5.4L8,5.4z M7.5,1.9L7.3,3.7
			c0,0.2,0,0.4,0.2,0.6l0,0C7.6,4.4,7.8,4.5,8,4.5s0.4-0.1,0.5-0.2S8.7,4,8.7,3.8L8.5,1.9H7.5z"/>
	</g>
	<g id="XMLID_162_">
		<path id="XMLID_174_" class="st0" d="M8,7.6c-0.4,0-0.7-0.3-0.7-0.7c0-0.4,0.3-0.7,0.7-0.7s0.7,0.3,0.7,0.7C8.7,7.3,8.4,7.6,8,7.6
			z M8,6.7c-0.1,0-0.2,0.1-0.2,0.2C7.8,7,7.9,7.1,8,7.1c0.1,0,0.2-0.1,0.2-0.2S8.1,6.7,8,6.7z"/>
	</g>
	<g id="XMLID_161_">
		<path id="XMLID_171_" class="st0" d="M8,10.2c-0.4,0-0.7-0.3-0.7-0.7S7.6,8.8,8,8.8s0.7,0.3,0.7,0.7S8.4,10.2,8,10.2z M8,9.3
			c-0.1,0-0.2,0.1-0.2,0.2c0,0.1,0.1,0.2,0.2,0.2c0.1,0,0.2-0.1,0.2-0.2C8.2,9.4,8.1,9.3,8,9.3z"/>
	</g>
	<g id="XMLID_160_">
		<path id="XMLID_168_" class="st0" d="M8,12.8c-0.4,0-0.7-0.3-0.7-0.7s0.3-0.7,0.7-0.7s0.7,0.3,0.7,0.7S8.4,12.8,8,12.8z M8,11.9
			c-0.1,0-0.2,0.1-0.2,0.2c0,0.1,0.1,0.2,0.2,0.2c0.1,0,0.2-0.1,0.2-0.2S8.1,11.9,8,11.9z"/>
	</g>
	<g id="XMLID_159_">
		<path id="XMLID_165_" class="st0" d="M12.8,15H3.2c-0.7,0-1.3-0.6-1.3-1.3V2.3C1.9,1.6,2.5,1,3.2,1h8c0.3,0,0.7,0.1,0.9,0.4
			l1.7,1.7C14,3.3,14.1,3.6,14.1,4v9.7C14.1,14.4,13.5,15,12.8,15z M3.2,1.9C3,1.9,2.8,2.1,2.8,2.3v11.4c0,0.2,0.2,0.4,0.4,0.4h9.6
			c0.2,0,0.4-0.2,0.4-0.4V4c0-0.1,0-0.2-0.1-0.3L11.4,2c-0.1-0.1-0.2-0.1-0.3-0.1H3.2z"/>
	</g>
</g>
<g id="XMLID_1_">
</g>
<g id="XMLID_2_">
</g>
<g id="XMLID_3_">
</g>
<g id="XMLID_4_">
</g>
<g id="XMLID_5_">
</g>
<g id="XMLID_6_">
</g>
<g id="XMLID_7_">
</g>
<g id="XMLID_8_">
</g>
<g id="XMLID_9_">
</g>
<g id="XMLID_10_">
</g>
<g id="XMLID_11_">
</g>
<g id="XMLID_12_">
</g>
<g id="XMLID_13_">
</g>
<g id="XMLID_14_">
</g>
<g id="XMLID_15_">
</g>
</svg>
