<?xml version="1.0" encoding="utf-8"?>
<!-- Generator: Adobe Illustrator 19.0.0, SVG Export Plug-In . SVG Version: 6.00 Build 0)  -->
<svg version="1.0" id="Layer_1" xmlns="http://www.w3.org/2000/svg" xmlns:xlink="http://www.w3.org/1999/xlink" x="0px" y="0px"
	 viewBox="0 0 16 16" style="enable-background:new 0 0 16 16;" xml:space="preserve">
<style type="text/css">
	.st0{fill:#FFFDFD;}
</style>
<g id="XMLID_89_">
	<path id="XMLID_90_" class="st0" d="M4.2,15c-0.4,0-0.8-0.2-1-0.6C3,14.1,3,13.8,3.1,13.5l1-3.6L1.4,7.3C1.2,7.1,1.1,6.8,1.1,6.5
		s0.1-0.6,0.3-0.8c0.2-0.2,0.4-0.3,0.7-0.3L5.3,5L7,1.6C7.2,1.2,7.6,1,8,1c0.2,0,0.4,0,0.5,0.1C8.7,1.2,8.9,1.4,9,1.6L10.7,5
		l3.2,0.3c0.6,0.1,1.1,0.6,1,1.3c0,0.3-0.1,0.5-0.3,0.7L11.9,10l1,3.6c0.1,0.3,0,0.6-0.1,0.9c-0.2,0.3-0.4,0.5-0.7,0.5
		c-0.1,0-0.2,0-0.3,0l0,0c-0.2,0-0.4,0-0.5-0.1L8,13.2l-3.3,1.7C4.5,15,4.4,15,4.2,15z M5,9.4c0.2,0.2,0.3,0.5,0.2,0.8l-1.1,3.9
		l3.5-1.8c0.1-0.1,0.2-0.1,0.4-0.1c0.1,0,0.2,0,0.4,0.1l3.5,1.8l-1.1-3.9c-0.1-0.3,0-0.6,0.2-0.8l2.9-2.9l-3.4-0.3
		C10.2,6.1,10,6,9.8,5.7L8,2L6.2,5.7C6,6,5.8,6.1,5.5,6.1L2.1,6.5L5,9.4z"/>
</g>
</svg>
