<?xml version="1.0" encoding="utf-8"?>
<!-- Generator: Adobe Illustrator 19.0.0, SVG Export Plug-In . SVG Version: 6.00 Build 0)  -->
<svg version="1.0" id="Layer_1" xmlns="http://www.w3.org/2000/svg" xmlns:xlink="http://www.w3.org/1999/xlink" x="0px" y="0px"
	 viewBox="0 0 16 16" style="enable-background:new 0 0 16 16;" xml:space="preserve">
<style type="text/css">
	.st0{fill:#FFFFFF;}
</style>
<g id="XMLID_323_">
	<path id="XMLID_356_" class="st0" d="M6.3,8L6.3,8C5.2,7.7,4.2,7.5,3.2,7.4C3,7.3,2.9,7.3,2.9,7.2C2.8,7.1,2.7,7,2.7,6.9
		c0-0.2,0.2-0.4,0.4-0.4l0,0c1.1,0.1,2.1,0.3,3.2,0.6c0.1,0,0.2,0.1,0.3,0.2c0.1,0.1,0.1,0.2,0,0.3C6.6,7.8,6.4,8,6.3,8z"/>
	<path id="XMLID_355_" class="st0" d="M6.3,10.4L6.3,10.4c-1.1-0.3-2.1-0.5-3.1-0.6C3,9.8,2.9,9.7,2.9,9.6c-0.1,0-0.2-0.2-0.2-0.3
		c0-0.2,0.2-0.4,0.4-0.4l0,0C4.3,9,5.4,9.2,6.4,9.6c0.1,0,0.2,0.1,0.3,0.2c0.1,0.1,0.1,0.2,0,0.3C6.6,10.3,6.4,10.4,6.3,10.4z"/>
	<path id="XMLID_354_" class="st0" d="M9.7,8C9.6,8,9.4,7.8,9.3,7.7c-0.1-0.2,0-0.5,0.3-0.6c1-0.3,2.1-0.6,3.2-0.6l0,0
		c0.2,0,0.4,0.2,0.4,0.4c0,0.1,0,0.2-0.1,0.3c-0.1,0.1-0.2,0.1-0.3,0.1C11.8,7.4,10.8,7.6,9.7,8C9.8,8,9.8,8,9.7,8z"/>
	<path id="XMLID_328_" class="st0" d="M9.7,10.4c-0.2,0-0.4-0.1-0.4-0.3c-0.1-0.2,0-0.5,0.3-0.6c1-0.3,2.1-0.6,3.2-0.6l0,0
		c0.2,0,0.4,0.2,0.4,0.4c0,0.1,0,0.2-0.1,0.3s-0.2,0.1-0.3,0.1c-1,0.1-2,0.3-3,0.6C9.8,10.4,9.8,10.4,9.7,10.4z"/>
	<path id="XMLID_324_" class="st0" d="M8,14.3L8,14.3L8,14.3L8,14.3c-0.1,0-0.2,0-0.2-0.1l0,0l0,0c0,0-1.5-1.5-6-1.5
		c-0.4,0-0.7-0.3-0.7-0.7V2.4C1,2.2,1.1,2,1.2,1.9s0.3-0.2,0.5-0.2c3.8,0.1,5.6,1,6.3,1.5c0.7-0.5,2.5-1.5,6.3-1.5
		c0.2,0,0.4,0.1,0.5,0.2C14.9,2,15,2.2,15,2.4V12c0,0.4-0.3,0.7-0.7,0.7c-4.5,0.1-5.9,1.5-6,1.5l0,0l0,0c0,0-0.1,0-0.1,0.1l0,0l0,0
		C8.1,14.3,8,14.3,8,14.3L8,14.3z M8.4,13c0.9-0.5,2.6-1.2,5.7-1.2V2.5c-2.3,0-3.8,0.5-4.6,0.8C8.9,3.6,8.6,3.8,8.4,3.9V13z
		 M1.9,11.8C5,11.9,6.7,12.5,7.6,13V3.9c-0.4-0.3-2-1.3-5.7-1.4C1.9,2.5,1.9,11.8,1.9,11.8z"/>
</g>
<g id="XMLID_1_">
</g>
<g id="XMLID_2_">
</g>
<g id="XMLID_3_">
</g>
<g id="XMLID_4_">
</g>
<g id="XMLID_5_">
</g>
<g id="XMLID_6_">
</g>
<g id="XMLID_7_">
</g>
<g id="XMLID_8_">
</g>
<g id="XMLID_9_">
</g>
<g id="XMLID_10_">
</g>
<g id="XMLID_11_">
</g>
<g id="XMLID_12_">
</g>
<g id="XMLID_13_">
</g>
<g id="XMLID_14_">
</g>
<g id="XMLID_15_">
</g>
</svg>
