<?xml version="1.0" encoding="utf-8"?>
<!-- Generator: Adobe Illustrator 19.0.0, SVG Export Plug-In . SVG Version: 6.00 Build 0)  -->
<svg version="1.0" id="Layer_1" xmlns="http://www.w3.org/2000/svg" xmlns:xlink="http://www.w3.org/1999/xlink" x="0px" y="0px"
	 viewBox="0 0 16 16" style="enable-background:new 0 0 16 16;" xml:space="preserve">
<style type="text/css">
	.st0{fill:#FFFFFF;}
</style>
<g id="XMLID_600_">
	<path id="XMLID_610_" class="st0" d="M2.8,4.5C1.8,4.5,1,3.7,1,2.8S1.8,1,2.8,1s1.8,0.8,1.8,1.8S3.7,4.5,2.8,4.5z M2.8,1.9
		c-0.5,0-0.9,0.4-0.9,0.9s0.4,0.9,0.9,0.9s0.9-0.4,0.9-0.9S3.2,1.9,2.8,1.9z"/>
	<path id="XMLID_607_" class="st0" d="M2.8,9.8C1.8,9.8,1,9,1,8s0.8-1.7,1.8-1.7S4.5,7,4.5,8S3.7,9.8,2.8,9.8z M2.8,7.1
		C2.3,7.1,1.9,7.5,1.9,8s0.4,0.9,0.9,0.9S3.6,8.5,3.6,8S3.2,7.1,2.8,7.1z"/>
	<path id="XMLID_604_" class="st0" d="M2.8,15c-1,0-1.8-0.8-1.8-1.8s0.8-1.8,1.8-1.8s1.8,0.8,1.8,1.8S3.7,15,2.8,15z M2.8,12.4
		c-0.5,0-0.9,0.4-0.9,0.9s0.4,0.9,0.9,0.9s0.9-0.4,0.9-0.9C3.6,12.8,3.2,12.4,2.8,12.4z"/>
	<path id="XMLID_372_" class="st0" d="M5.8,3.6c-0.2,0-0.4-0.2-0.4-0.4s0.2-0.4,0.4-0.4h8.8C14.8,2.8,15,3,15,3.2s-0.2,0.4-0.4,0.4
		H5.8z"/>
	<path id="XMLID_371_" class="st0" d="M5.8,8.9c-0.2,0-0.4-0.2-0.4-0.4S5.6,8,5.8,8h8.8C14.8,8,15,8.2,15,8.4s-0.2,0.4-0.4,0.4H5.8
		V8.9z"/>
	<path id="XMLID_370_" class="st0" d="M5.8,14.1c-0.2,0-0.4-0.2-0.4-0.4s0.2-0.4,0.4-0.4h8.8c0.2,0,0.4,0.2,0.4,0.4
		s-0.2,0.4-0.4,0.4H5.8z"/>
</g>
<g id="XMLID_1_">
</g>
<g id="XMLID_2_">
</g>
<g id="XMLID_3_">
</g>
<g id="XMLID_4_">
</g>
<g id="XMLID_5_">
</g>
<g id="XMLID_6_">
</g>
<g id="XMLID_7_">
</g>
<g id="XMLID_8_">
</g>
<g id="XMLID_9_">
</g>
<g id="XMLID_10_">
</g>
<g id="XMLID_11_">
</g>
<g id="XMLID_12_">
</g>
<g id="XMLID_13_">
</g>
<g id="XMLID_14_">
</g>
<g id="XMLID_15_">
</g>
</svg>
