<?xml version="1.0" encoding="utf-8"?>
<!-- Generator: Adobe Illustrator 19.0.0, SVG Export Plug-In . SVG Version: 6.00 Build 0)  -->
<svg version="1.0" id="Layer_1" xmlns="http://www.w3.org/2000/svg" xmlns:xlink="http://www.w3.org/1999/xlink" x="0px" y="0px"
	 viewBox="0 0 16 16" style="enable-background:new 0 0 16 16;" xml:space="preserve">
<style type="text/css">
	.st0{fill:#FFFFFF;}
</style>
<g id="XMLID_1_">
</g>
<g id="XMLID_2_">
</g>
<g id="XMLID_3_">
</g>
<g id="XMLID_4_">
</g>
<g id="XMLID_5_">
</g>
<g id="XMLID_6_">
</g>
<g id="XMLID_7_">
</g>
<g id="XMLID_8_">
</g>
<g id="XMLID_9_">
</g>
<g id="XMLID_10_">
</g>
<g id="XMLID_11_">
</g>
<g id="XMLID_12_">
</g>
<g id="XMLID_13_">
</g>
<g id="XMLID_14_">
</g>
<g id="XMLID_126_">
	<path id="XMLID_134_" class="st0" d="M5.8,15c-0.4,0-0.8-0.1-1.1-0.4c-0.3-0.3-0.5-0.8-0.5-1.2v-0.8c0-0.4-0.3-0.7-0.7-0.7l0,0l0,0
		H2.7H2.6c-0.4,0-0.8-0.1-1.1-0.4C1.2,11.1,1,10.8,1,10.3S1.2,9.4,1.5,9l0.6-0.5C2.3,8.4,2.3,8.2,2.4,8c0-0.2-0.1-0.4-0.2-0.5
		c0,0,0,0-0.1-0.1L1.5,6.9C1.2,6.6,1,6.3,1,5.8C1,5.4,1.1,5,1.4,4.7s0.7-0.5,1.2-0.5h0.1h0.8l0,0c0.4,0,0.7-0.3,0.7-0.7
		c0,0,0,0,0-0.1V2.6C4.1,1.8,4.8,1,5.7,1h0.1C6.2,1,6.7,1.2,7,1.5l0.5,0.6C7.6,2.3,7.8,2.4,8,2.4l0,0c0.2,0,0.3-0.1,0.5-0.2
		c0,0,0,0,0.1-0.1l0.6-0.6C9.4,1.2,9.7,1,10.2,1h0.1c0.4,0,0.8,0.1,1.1,0.4c0.4,0.3,0.5,0.8,0.5,1.3v0.8c0,0.4,0.3,0.7,0.7,0.7l0,0
		l0,0h0.8h0.1c0.4,0,0.8,0.1,1.1,0.4C14.8,4.9,15,5.3,15,5.7c0,0.5-0.2,0.9-0.5,1.3l-0.6,0.5c-0.1,0.1-0.2,0.3-0.2,0.5
		s0.1,0.4,0.2,0.5c0,0,0,0,0.1,0.1l0.6,0.5c0.3,0.3,0.5,0.7,0.5,1.1c0,0.4-0.1,0.8-0.4,1.1c-0.3,0.3-0.7,0.5-1.2,0.5l0,0h-0.1h-0.8
		l0,0c-0.2,0-0.3,0.1-0.5,0.2c-0.1,0.1-0.2,0.3-0.2,0.5c0,0,0,0,0,0.1v0.8c0,0.4-0.1,0.8-0.4,1.1c-0.3,0.3-0.7,0.5-1.1,0.5h-0.1
		c-0.4,0-0.9-0.2-1.2-0.5l-0.6-0.6c-0.1-0.1-0.3-0.2-0.5-0.2s-0.3,0.1-0.5,0.2c0,0,0,0-0.1,0.1l-0.6,0.6C6.6,14.8,6.2,15,5.8,15z
		 M3.5,10.9C3.5,10.9,3.6,10.9,3.5,10.9c1,0,1.6,0.8,1.6,1.7v0.8c0,0.2,0.1,0.4,0.2,0.6c0.1,0.1,0.3,0.2,0.5,0.2l0,0
		c0.2,0,0.4-0.1,0.5-0.2l0.6-0.6L7,13.3c0.3-0.3,0.7-0.4,1.1-0.4c0.4,0,0.9,0.2,1.2,0.5L9.8,14c0.1,0.1,0.3,0.2,0.5,0.2l0,0
		c0.4,0,0.7-0.3,0.7-0.7v-0.8c0-0.1,0-0.1,0-0.2c0-0.4,0.2-0.8,0.5-1.1s0.7-0.4,1.1-0.4h0.1h0.8l0,0c0.2,0,0.4-0.1,0.5-0.2
		c0.1-0.1,0.2-0.3,0.2-0.5S14.1,9.9,14,9.8l-0.6-0.5l-0.1-0.1c-0.6-0.6-0.5-1.6,0.1-2.2L14,6.5c0.2-0.1,0.2-0.3,0.2-0.6
		c0-0.2-0.1-0.4-0.2-0.5c-0.1-0.1-0.3-0.2-0.5-0.2l0,0h-0.8h-0.1h-0.1c-0.9,0-1.5-0.8-1.5-1.7V2.7c0-0.2-0.1-0.4-0.2-0.6
		c-0.1-0.1-0.3-0.2-0.5-0.2l0,0C10,1.9,9.9,2,9.7,2.1L9.2,2.7L9.1,2.8C8.8,3.1,8.4,3.2,8,3.2H7.9C7.5,3.2,7.1,3,6.8,2.7L6.3,2.1
		C6.1,2,6,1.9,5.8,1.9l0,0C5.3,1.9,5,2.2,5.1,2.6v0.8c0,0.1,0,0.1,0,0.2c0,0.8-0.7,1.5-1.6,1.5H3.4H2.6l0,0c-0.2,0-0.4,0.1-0.5,0.2
		C1.9,5.4,1.9,5.6,1.9,5.8C1.9,6,2,6.2,2.1,6.3l0.6,0.6L2.8,7c0.6,0.6,0.5,1.6-0.1,2.2L2.1,9.7C1.9,9.8,1.9,10,1.9,10.3
		c0,0.2,0.1,0.4,0.2,0.5C2.2,10.9,2.4,11,2.6,11l0,0L3.5,10.9L3.5,10.9z"/>
	<path id="XMLID_128_" class="st0" d="M8,11.1c-1.7,0-3.1-1.4-3.1-3.1S6.3,4.9,8,4.9s3.1,1.4,3.1,3.1S9.7,11.1,8,11.1z M8,5.8
		c-1.2,0-2.2,1-2.2,2.2s1,2.2,2.2,2.2s2.2-1,2.2-2.2S9.2,5.8,8,5.8z"/>
</g>
</svg>
