<?xml version="1.0" encoding="utf-8"?>
<!-- Generator: Adobe Illustrator 19.0.0, SVG Export Plug-In . SVG Version: 6.00 Build 0)  -->
<svg version="1.0" id="Layer_1" xmlns="http://www.w3.org/2000/svg" xmlns:xlink="http://www.w3.org/1999/xlink" x="0px" y="0px"
	 viewBox="0 0 16 16" style="enable-background:new 0 0 16 16;" xml:space="preserve">
<style type="text/css">
	.st0{fill:#FFFFFF;}
</style>
<g id="XMLID_1_">
</g>
<g id="XMLID_2_">
</g>
<g id="XMLID_3_">
</g>
<g id="XMLID_4_">
</g>
<g id="XMLID_5_">
</g>
<g id="XMLID_6_">
</g>
<g id="XMLID_7_">
</g>
<g id="XMLID_8_">
</g>
<g id="XMLID_9_">
</g>
<g id="XMLID_10_">
</g>
<g id="XMLID_11_">
</g>
<g id="XMLID_12_">
</g>
<g id="XMLID_13_">
</g>
<g id="XMLID_14_">
</g>
<g id="XMLID_93_">
	<path id="XMLID_96_" class="st0" d="M1.4,15c-0.1,0-0.2,0-0.3-0.1C1,14.7,1,14.5,1,14.4l1.7-3.6c-0.6-1-0.9-2.1-0.9-3.3
		C1.9,3.9,4.8,1,8.4,1l0,0c1.2,0,2.4,0.3,3.5,1c1.5,0.9,2.5,2.4,2.9,4.1s0.1,3.5-0.8,5c-0.9,1.5-2.4,2.5-4.1,2.9
		c-0.5,0.1-1,0.2-1.5,0.2l0,0c-1.1,0-2.3-0.3-3.2-0.9L1.6,15C1.6,15,1.5,15,1.4,15z M8.4,1.9c-3.1,0-5.7,2.5-5.7,5.7
		c0,1.1,0.3,2.1,0.9,3c0.1,0.1,0.1,0.3,0,0.4l-1.3,2.7L5,12.4c0.1,0,0.1,0,0.2,0s0.2,0,0.2,0.1c0.9,0.6,1.9,0.9,3,0.9
		c0.4,0,0.9-0.1,1.3-0.2c1.5-0.3,2.7-1.2,3.5-2.5s1.1-2.8,0.7-4.3c-0.3-1.5-1.2-2.7-2.5-3.5C10.5,2.2,9.5,1.9,8.4,1.9L8.4,1.9z"/>
	<circle id="XMLID_85_" class="st0" cx="8.4" cy="9.5" r="0.7"/>
	<path id="XMLID_84_" class="st0" d="M8.4,8C8.2,8,8,7.8,8,7.6V4.9c0-0.2,0.2-0.4,0.4-0.4s0.4,0.2,0.4,0.4v2.6C8.9,7.8,8.7,8,8.4,8z
		"/>
</g>
</svg>
