<?xml version="1.0" encoding="utf-8"?>
<!-- Generator: Adobe Illustrator 19.0.0, SVG Export Plug-In . SVG Version: 6.00 Build 0)  -->
<svg version="1.0" id="Layer_1" xmlns="http://www.w3.org/2000/svg" xmlns:xlink="http://www.w3.org/1999/xlink" x="0px" y="0px"
	 viewBox="0 0 16 16" style="enable-background:new 0 0 16 16;" xml:space="preserve">
<style type="text/css">
	.st0{fill:#FFFFFF;}
</style>
<g id="XMLID_1_">
</g>
<g id="XMLID_2_">
</g>
<g id="XMLID_3_">
</g>
<g id="XMLID_4_">
</g>
<g id="XMLID_5_">
</g>
<g id="XMLID_6_">
</g>
<g id="XMLID_7_">
</g>
<g id="XMLID_8_">
</g>
<g id="XMLID_9_">
</g>
<g id="XMLID_10_">
</g>
<g id="XMLID_11_">
</g>
<g id="XMLID_12_">
</g>
<g id="XMLID_13_">
</g>
<g id="XMLID_14_">
</g>
<g id="XMLID_242_">
	<path id="XMLID_190_" class="st0" d="M8.1,10.7C8,10.5,8,10.2,8.1,10l1.5-1.5H1C0.7,8.5,0.5,8.3,0.5,8S0.7,7.5,1,7.5h8.7L8.1,6
		C8,5.9,8,5.8,8,5.7c0-0.1,0-0.2,0.1-0.3c0.1-0.1,0.2-0.1,0.3-0.1s0.2,0,0.3,0.1L11,7.7c0,0,0,0,0.1,0.1l0,0c0,0,0,0,0,0.1l0,0
		c0,0,0,0,0,0.1v0.1v0.1c0,0,0,0,0,0.1l0,0l0,0l0,0c0,0,0,0,0,0.1l0,0l-2.3,2.3c-0.1,0.1-0.2,0.1-0.3,0.1
		C8.3,10.8,8.2,10.8,8.1,10.7z"/>
	<path id="XMLID_188_" class="st0" d="M14.2,15H6.5c-0.7,0-1.3-0.7-1.3-1.4v-2.8c0-0.3,0.2-0.5,0.5-0.5s0.5,0.2,0.5,0.5v2.8
		c0,0.2,0.2,0.4,0.4,0.4h7.6c0.2,0,0.4-0.2,0.4-0.5V2.3c0-0.2-0.2-0.4-0.4-0.4H6.6c-0.2,0-0.4,0.2-0.4,0.5v2.8
		c0,0.3-0.2,0.5-0.5,0.5S5.2,5.5,5.2,5.2V2.4C5.2,1.7,5.8,1,6.5,1h7.7c0.7,0,1.3,0.7,1.3,1.4v11.2C15.5,14.3,14.9,15,14.2,15
		L14.2,15z"/>
</g>
</svg>
