<?xml version="1.0" encoding="utf-8"?>
<!-- Generator: Adobe Illustrator 19.0.0, SVG Export Plug-In . SVG Version: 6.00 Build 0)  -->
<svg version="1.0" id="Layer_1" xmlns="http://www.w3.org/2000/svg" xmlns:xlink="http://www.w3.org/1999/xlink" x="0px" y="0px"
	 viewBox="0 0 16 16" style="enable-background:new 0 0 16 16;" xml:space="preserve">
<style type="text/css">
	.st0{fill:#FFFFFF;}
</style>
<g id="XMLID_87_">
	<path id="XMLID_90_" class="st0" d="M12.7,10.8c-0.1,0-0.2,0-0.3-0.1c-0.2-0.2-0.2-0.5,0-0.7l1.5-1.5H5.2C4.9,8.5,4.7,8.3,4.7,8
		s0.2-0.5,0.5-0.5h8.7L12.3,6c-0.1-0.1-0.1-0.2-0.1-0.3c0-0.1,0-0.2,0.1-0.3c0.1-0.1,0.2-0.1,0.3-0.1s0.2,0,0.3,0.1l2.3,2.3
		c0,0,0,0,0.1,0.1l0,0c0,0,0,0,0,0.1l0,0c0,0,0,0,0,0.1v0.1v0.1c0,0,0,0,0,0.1l0,0c0,0,0,0,0,0.1l0,0c0,0,0,0,0,0.1l0,0L13,10.7
		C12.9,10.8,12.8,10.8,12.7,10.8z"/>
	<path id="XMLID_89_" class="st0" d="M1.8,15c-0.8,0-1.3-0.7-1.3-1.4V2.4C0.5,1.7,1.1,1,1.8,1h7.7c0.8,0,1.3,0.7,1.3,1.4v2.8
		c0,0.3-0.2,0.5-0.5,0.5S9.9,5.5,9.9,5.2V2.4c0-0.3-0.2-0.5-0.4-0.5H1.9c-0.2,0-0.4,0.2-0.4,0.4v11.2c0,0.3,0.2,0.5,0.4,0.5h7.6
		c0.2,0,0.4-0.2,0.4-0.4v-2.8c0-0.3,0.2-0.5,0.5-0.5s0.5,0.2,0.5,0.5v2.8c0,0.7-0.5,1.4-1.3,1.4H1.8L1.8,15z"/>
</g>
<g id="XMLID_1_">
</g>
<g id="XMLID_2_">
</g>
<g id="XMLID_3_">
</g>
<g id="XMLID_4_">
</g>
<g id="XMLID_5_">
</g>
<g id="XMLID_6_">
</g>
<g id="XMLID_7_">
</g>
<g id="XMLID_8_">
</g>
<g id="XMLID_9_">
</g>
<g id="XMLID_10_">
</g>
<g id="XMLID_11_">
</g>
<g id="XMLID_12_">
</g>
<g id="XMLID_13_">
</g>
<g id="XMLID_14_">
</g>
<g id="XMLID_15_">
</g>
</svg>
